# Blender v2.82 (sub 7) OBJ File: 'grass.blend'
# www.blender.org
mtllib grass6.mtl
o Plane
v 0.000000 0.000000 1.000000
v -0.000000 0.000000 -1.000000
v 0.000000 2.000000 1.000000
v 0.000000 2.000000 -1.000000
vt 0.000000 0.000000
vt 1.000000 0.000000
vt 1.000000 1.000000
vt 0.000000 1.000000
vn 1.0000 -0.0000 -0.0000
usemtl None
s off
f 1/1/1 2/2/1 4/3/1 3/4/1
o Plane.001_Plane.002
v 1.000000 0.000000 -0.000000
v -1.000000 0.000000 0.000000
v 1.000000 2.000000 -0.000000
v -1.000000 2.000000 0.000000
vt 0.000000 0.000000
vt 1.000000 0.000000
vt 1.000000 1.000000
vt 0.000000 1.000000
vn -0.0000 -0.0000 -1.0000
usemtl None
s off
f 5/5/2 6/6/2 8/7/2 7/8/2
